<svg xmlns="http://www.w3.org/2000/svg" viewBox="0 0 150 50">
  <g fill="#2A4A35">
    <text x="10" y="42" font-family="sans-serif" font-weight="900" font-size="45">C</text>
    
    <g transform="translate(45, 12) scale(0.8)">
      <path d="M12,2 C5.37,2 0,9.16 0,18 C0,26.84 5.37,34 12,34 C18.63,34 24,26.84 24,18 C24,9.16 18.63,2 12,2 Z" fill="#2A4A35" />
      <path d="M11,3 C10,12 16,24 11,33" fill="none" stroke="white" stroke-width="2.5" stroke-linecap="round" />
    </g>

    <text x="75" y="42" font-family="sans-serif" font-weight="900" font-size="45">T</text>
    
    <g transform="translate(105, 12) scale(0.8)">
      <path d="M12,2 C5.37,2 0,9.16 0,18 C0,26.84 5.37,34 12,34 C18.63,34 24,26.84 24,18 C24,9.16 18.63,2 12,2 Z" fill="#2A4A35" />
      <path d="M11,3 C10,12 16,24 11,33" fill="none" stroke="white" stroke-width="2.5" stroke-linecap="round" />
    </g>

    <text x="135" y="42" font-family="sans-serif" font-weight="900" font-size="45">F</text>
  </g>
</svg>
